<?xml version="1.0" encoding="UTF-8"?>
<!DOCTYPE svg PUBLIC "-//W3C//DTD SVG 1.1//EN" "http://www.w3.org/Graphics/SVG/1.1/DTD/svg11.dtd">
<svg xmlns="http://www.w3.org/2000/svg" version="1.1" width="93px" height="105px" style="shape-rendering:geometricPrecision; text-rendering:geometricPrecision; image-rendering:optimizeQuality; fill-rule:evenodd; clip-rule:evenodd" xmlns:xlink="http://www.w3.org/1999/xlink">
<g><path style="opacity:1" fill="#22201c" d="M -0.5,-0.5 C 30.5,-0.5 61.5,-0.5 92.5,-0.5C 92.5,34.5 92.5,69.5 92.5,104.5C 61.5,104.5 30.5,104.5 -0.5,104.5C -0.5,69.5 -0.5,34.5 -0.5,-0.5 Z"/></g>
<g><path style="opacity:1" fill="#dc9408" d="M 48.5,10.5 C 50.1238,10.3601 51.2904,11.0267 52,12.5C 63.1667,38.1667 74.3333,63.8333 85.5,89.5C 81.2172,90.4922 76.8839,90.8256 72.5,90.5C 70.3287,83.4884 67.6621,76.6551 64.5,70C 52.5046,69.5001 40.5046,69.3335 28.5,69.5C 26.4063,76.3601 23.7397,83.0268 20.5,89.5C 18.5,90.8333 16.5,90.8333 14.5,89.5C 26.2315,63.2949 37.5648,36.9615 48.5,10.5 Z"/></g>
<g><path style="opacity:1" fill="#24211c" d="M 46.5,27.5 C 52.1051,39.4583 57.4384,51.625 62.5,64C 52.1506,64.8323 41.8172,64.6656 31.5,63.5C 36.5074,51.471 41.5074,39.471 46.5,27.5 Z"/></g>
</svg>
